<svg xmlns="http://www.w3.org/2000/svg" width="612" height="230"><path style="line-height:125%;-inkscape-font-specification:'Open Sans'" d="M243.709 91.592v45.586h4.863V91.592h-4.863zm218.285 0v45.586h4.863V91.592h-4.863zM225.39 93.73c-4.22 0-7.891.899-11.016 2.696-3.105 1.797-5.488 4.355-7.148 7.676-1.641 3.32-2.461 7.187-2.461 11.601 0 7.05 1.709 12.49 5.127 16.318 3.437 3.829 8.31 5.743 14.619 5.743 4.355 0 8.017-.557 10.986-1.67v-4.365c-3.828 1.074-7.236 1.61-10.225 1.61-4.863 0-8.613-1.523-11.25-4.57-2.617-3.066-3.925-7.402-3.925-13.007 0-5.45 1.357-9.737 4.072-12.862 2.734-3.144 6.455-4.716 11.162-4.716 3.242 0 6.484.761 9.727 2.285l2.109-4.278c-3.36-1.64-7.285-2.46-11.777-2.46zm165.5 0c-4.082 0-7.364.977-9.844 2.93-2.48 1.953-3.72 4.58-3.72 7.881 0 3.145.849 5.693 2.548 7.647 1.719 1.953 4.57 3.642 8.555 5.068 2.851 1.015 4.97 1.924 6.357 2.724 1.406.801 2.402 1.68 2.988 2.637.606.938.909 2.149.909 3.633 0 2.246-.84 4.004-2.52 5.273-1.68 1.25-4.18 1.875-7.5 1.875-2.031 0-4.082-.214-6.152-.644-2.07-.43-3.985-1.016-5.742-1.758v4.805c2.734 1.308 6.64 1.963 11.718 1.963 4.688 0 8.399-1.055 11.133-3.164 2.735-2.11 4.102-5.05 4.102-8.819 0-2.93-.85-5.312-2.55-7.148-1.679-1.836-4.765-3.555-9.257-5.156-2.676-.957-4.668-1.827-5.976-2.608-1.29-.8-2.208-1.67-2.754-2.607-.547-.957-.82-2.178-.82-3.662 0-2.012.741-3.584 2.226-4.717 1.484-1.133 3.545-1.7 6.181-1.7 3.34 0 6.778.743 10.313 2.227l1.553-4.336c-3.575-1.562-7.49-2.344-11.748-2.344zm22.861 3.897l-2.05 6.855-4.6 2.022v2.344h4.6v19.101c0 6.543 3.105 9.815 9.316 9.815.82 0 1.738-.088 2.754-.264 1.035-.156 1.816-.361 2.343-.615v-3.72c-.468.136-1.103.273-1.904.41-.8.116-1.63.175-2.49.175-1.602 0-2.862-.518-3.78-1.553-.918-1.035-1.377-2.52-1.377-4.453v-18.896h9.317v-3.78h-9.317v-7.441h-2.812zm-142.902 6.855c-4.297 0-7.725 1.524-10.284 4.57-2.539 3.048-3.808 7.159-3.808 12.335 0 5.136 1.367 9.15 4.101 12.04 2.754 2.891 6.504 4.337 11.25 4.337 2.168 0 4.014-.166 5.538-.498 1.543-.313 3.173-.84 4.892-1.582v-4.336c-3.379 1.445-6.797 2.168-10.254 2.168-3.281 0-5.83-.977-7.646-2.93-1.797-1.953-2.744-4.815-2.842-8.584h22.12v-3.076c0-4.336-1.173-7.822-3.517-10.46-2.343-2.655-5.527-3.984-9.55-3.984zm62.95 0c-4.296 0-7.724 1.524-10.282 4.57-2.54 3.048-3.809 7.159-3.809 12.335 0 5.136 1.367 9.15 4.102 12.04 2.753 2.891 6.503 4.337 11.25 4.337 2.168 0 4.013-.166 5.537-.498 1.543-.313 3.174-.84 4.892-1.582v-4.336c-3.379 1.445-6.797 2.168-10.254 2.168-3.28 0-5.83-.977-7.646-2.93-1.797-1.953-2.744-4.815-2.842-8.584h22.12v-3.076c0-4.336-1.173-7.822-3.516-10.46-2.344-2.655-5.528-3.984-9.551-3.984zm35.577 0c-2.012 0-3.857.567-5.537 1.7-1.68 1.132-3.115 2.744-4.307 4.834h-.234l-.557-5.948h-4.013v32.11h4.863V119.95c0-3.144.918-5.771 2.754-7.88 1.855-2.11 4.082-3.165 6.68-3.165 1.015 0 2.187.147 3.515.44l.674-4.512c-1.133-.234-2.412-.352-3.838-.352zm119.758 0c-4.297 0-7.725 1.524-10.283 4.57-2.54 3.048-3.809 7.159-3.809 12.335 0 5.136 1.367 9.15 4.102 12.04 2.753 2.891 6.503 4.337 11.25 4.337 2.168 0 4.013-.166 5.537-.498 1.543-.313 3.174-.84 4.892-1.582v-4.336c-3.379 1.445-6.797 2.168-10.254 2.168-3.28 0-5.83-.977-7.646-2.93-1.797-1.953-2.744-4.815-2.842-8.584h22.12v-3.076c0-4.336-1.173-7.822-3.516-10.46-2.344-2.655-5.528-3.984-9.551-3.984zm49.502 0c-4.649 0-8.281 1.465-10.899 4.395-2.617 2.91-3.925 6.982-3.925 12.217 0 3.379.605 6.328 1.816 8.847 1.21 2.52 2.93 4.454 5.156 5.801 2.227 1.348 4.776 2.022 7.647 2.022 4.648 0 8.29-1.465 10.927-4.395 2.637-2.95 3.956-7.04 3.956-12.275 0-5.098-1.329-9.14-3.985-12.13-2.637-2.987-6.201-4.482-10.693-4.482zm37.424 0c-2.012 0-3.858.567-5.538 1.7-1.68 1.132-3.115 2.744-4.306 4.834h-.235l-.556-5.948h-4.014v32.11h4.863V119.95c0-3.144.918-5.771 2.754-7.88 1.856-2.11 4.082-3.165 6.68-3.165 1.016 0 2.188.147 3.516.44l.673-4.512c-1.132-.234-2.412-.352-3.837-.352zm20.078 0c-3.867 0-6.856.957-8.965 2.872-2.11 1.894-3.164 4.6-3.164 8.115 0 2.11.517 3.984 1.553 5.625 1.054 1.64 2.412 2.802 4.072 3.486-1.348.82-2.334 1.67-2.96 2.549-.624.879-.937 1.904-.937 3.076 0 1.035.274 1.943.82 2.725.567.78 1.26 1.357 2.08 1.728-2.265.508-4.023 1.475-5.273 2.9-1.25 1.426-1.875 3.116-1.875 5.069 0 2.852 1.133 5.059 3.399 6.621 2.285 1.563 5.527 2.344 9.726 2.344 5.469 0 9.63-.938 12.48-2.813 2.852-1.855 4.278-4.56 4.278-8.115 0-2.793-.937-4.922-2.812-6.387-1.856-1.464-4.522-2.197-7.998-2.197h-5.684c-1.758 0-2.998-.205-3.72-.615-.723-.43-1.085-1.084-1.085-1.963 0-1.66 1.035-3.037 3.106-4.13.84.155 1.738.233 2.695.233 3.75 0 6.7-.937 8.848-2.812 2.148-1.875 3.222-4.385 3.222-7.53 0-1.386-.214-2.626-.644-3.72-.43-1.113-.918-2.012-1.465-2.695l5.947-.703v-3.077h-11.103c-1.348-.39-2.862-.586-4.541-.586zm-309.516.586l12.188 32.11h5.683l12.188-32.11h-5.215c-3.985 10.938-6.553 18.037-7.705 21.3-1.133 3.241-1.807 5.38-2.022 6.415h-.234c-.274-1.328-1.192-4.219-2.754-8.672l-6.914-19.043h-5.215zm140.442 0l12.949 32.286-1.787 4.57c-1.426 3.75-3.809 5.625-7.149 5.625-1.328 0-2.53-.117-3.603-.352v3.897c1.445.332 2.91.498 4.394.498 2.656 0 4.893-.762 6.71-2.285 1.835-1.504 3.437-4.063 4.804-7.676l13.799-36.563h-5.215c-4.492 12.422-7.149 19.844-7.969 22.266-.8 2.402-1.328 4.102-1.582 5.098h-.234c-.371-1.856-1.328-4.873-2.871-9.053l-7.032-18.31h-5.214zm168.869 2.96c4.804 0 7.207 2.411 7.207 7.236 0 4.61-2.373 6.914-7.12 6.914-2.265 0-4.033-.576-5.302-1.729-1.27-1.152-1.904-2.851-1.904-5.097 0-2.422.615-4.248 1.845-5.479 1.23-1.23 2.988-1.846 5.274-1.846zm-325.143.527c2.54 0 4.492.82 5.86 2.46 1.367 1.622 2.05 3.965 2.05 7.032h-16.787c.274-2.969 1.172-5.293 2.695-6.973 1.543-1.68 3.604-2.52 6.182-2.52zm62.951 0c2.54 0 4.492.82 5.86 2.46 1.367 1.622 2.05 3.965 2.05 7.032h-16.787c.274-2.969 1.172-5.293 2.696-6.973 1.543-1.68 3.603-2.52 6.181-2.52zm155.334 0c2.54 0 4.492.82 5.86 2.46 1.367 1.622 2.05 3.965 2.05 7.032h-16.787c.274-2.969 1.172-5.293 2.696-6.973 1.543-1.68 3.603-2.52 6.181-2.52zm49.414.058c3.223 0 5.655 1.065 7.295 3.194 1.66 2.109 2.49 5.205 2.49 9.287 0 4.12-.83 7.256-2.49 9.404-1.64 2.129-4.053 3.193-7.236 3.193-3.184 0-5.596-1.074-7.236-3.222-1.641-2.149-2.461-5.274-2.461-9.375 0-4.14.81-7.256 2.431-9.346s4.024-3.135 7.207-3.135zm-25.674 21.475c-1.113 0-1.972.342-2.578 1.025-.586.664-.879 1.65-.879 2.96 0 1.406.323 2.421.967 3.046.664.606 1.494.908 2.49.908 1.114 0 1.993-.341 2.637-1.025.645-.684.967-1.66.967-2.93 0-1.308-.322-2.295-.967-2.959-.625-.683-1.504-1.025-2.637-1.025zm80.364 6.357h5.83c2.969 0 4.99.332 6.064.996 1.074.684 1.612 1.895 1.612 3.633 0 2.09-.987 3.74-2.96 4.951-1.953 1.23-4.97 1.846-9.052 1.846-2.735 0-4.834-.45-6.299-1.348-1.465-.898-2.197-2.216-2.197-3.955 0-1.972.615-3.486 1.845-4.54 1.231-1.055 2.95-1.583 5.157-1.583z" font-weight="400" font-size="89.831" font-family="Open Sans" letter-spacing="-.599" word-spacing="0" fill="#fff"/><g transform="matrix(.6 0 0 .6 19.705 61)"><path d="M220 163.197L91.756 89.1l40.07-93.497s2.5-5.834 8.174-5.834c5.674 0 8.174 5.834 8.174 5.834M135 119.863l-75 43.334L89.774 93.73z" fill="#fff"/><circle cy="90" cx="140" r="130" fill="none" stroke="#fff" stroke-width="10"/></g></svg>